HIERARCHY
ROOT Root
{
  OFFSET 0.0 0.0 0.0
  CHANNELS 6 Xposition Yposition Zposition Zrotation Yrotation Xrotation
  JOINT Hips
  {
    OFFSET 0.0 100.0 0.0
    CHANNELS 6 Xposition Yposition Zposition Zrotation Yrotation Xrotation
    JOINT Spine1
    {
      OFFSET 5.003913 -0.037094 -0.013727
      CHANNELS 3 Zrotation Yrotation Xrotation
      JOINT Spine2
      {
        OFFSET 7.125363 -1e-06 0.0
        CHANNELS 3 Zrotation Yrotation Xrotation
        JOINT Chest
        {
          OFFSET 7.594027 1e-06 0.0
          CHANNELS 3 Zrotation Yrotation Xrotation
          JOINT Neck1
          {
            OFFSET 26.313086 -0.460272 -0.181672
            CHANNELS 3 Zrotation Yrotation Xrotation
            JOINT Neck2
            {
              OFFSET 8.045911 0.0 0.0
              CHANNELS 3 Zrotation Yrotation Xrotation
              JOINT Head
              {
                OFFSET 6.432774 0.0 0.0
                CHANNELS 3 Zrotation Yrotation Xrotation
                JOINT HeadEnd
                {
                  OFFSET 16.169773 0.06451 0.00362
                  CHANNELS 3 Zrotation Yrotation Xrotation
                }
                JOINT Jaw
                {
                  OFFSET 0.108741 3.12938 0.002639
                  CHANNELS 3 Zrotation Yrotation Xrotation
                }
                JOINT LeftEye
                {
                  OFFSET 4.45173 8.166359 3.206392
                  CHANNELS 3 Zrotation Yrotation Xrotation
                }
                JOINT RightEye
                {
                  OFFSET 4.436895 8.135758 -3.222429
                  CHANNELS 3 Zrotation Yrotation Xrotation
                }
              }
            }
          }
          JOINT LeftShoulder
          {
            OFFSET 23.218927 5.195579 1.621656
            CHANNELS 3 Zrotation Yrotation Xrotation
            JOINT LeftArm
            {
              OFFSET 15.902118 2e-06 -2e-06
              CHANNELS 3 Zrotation Yrotation Xrotation
              JOINT LeftForeArm
              {
                OFFSET 28.739307 0.0 -1e-06
                CHANNELS 3 Zrotation Yrotation Xrotation
                JOINT LeftHand
                {
                  OFFSET 27.093981 -4e-06 0.0
                  CHANNELS 3 Zrotation Yrotation Xrotation
                  JOINT LeftHandThumb1
                  {
                    OFFSET 2.276781 3.380274 0.83384
                    CHANNELS 3 Zrotation Yrotation Xrotation
                    JOINT LeftHandThumb2
                    {
                      OFFSET 4.705309 -1e-06 -1e-06
                      CHANNELS 3 Zrotation Yrotation Xrotation
                      JOINT LeftHandThumb3
                      {
                        OFFSET 2.798515 0.0 3e-06
                        CHANNELS 3 Zrotation Yrotation Xrotation
                        JOINT LeftHandThumbEnd
                        {
                          OFFSET 3.180793 4e-06 -4e-06
                          CHANNELS 3 Zrotation Yrotation Xrotation
                        }
                      }
                    }
                  }
                  JOINT LeftHandIndex1
                  {
                    OFFSET 3.247786 2.352677 0.137192
                    CHANNELS 3 Zrotation Yrotation Xrotation
                    JOINT LeftHandIndex2
                    {
                      OFFSET 6.367095 1e-06 0.0
                      CHANNELS 3 Zrotation Yrotation Xrotation
                      JOINT LeftHandIndex3
                      {
                        OFFSET 3.662364 0.0 0.0
                        CHANNELS 3 Zrotation Yrotation Xrotation
                        JOINT LeftHandIndex4
                        {
                          OFFSET 2.329242 4e-06 -4e-06
                          CHANNELS 3 Zrotation Yrotation Xrotation
                          JOINT LeftHandIndexEnd
                          {
                            OFFSET 2.767823 1e-06 0.0
                            CHANNELS 3 Zrotation Yrotation Xrotation
                          }
                        }
                      }
                    }
                  }
                  JOINT LeftHandMiddle1
                  {
                    OFFSET 3.163612 0.945023 -0.406112
                    CHANNELS 3 Zrotation Yrotation Xrotation
                    JOINT LeftHandMiddle2
                    {
                      OFFSET 6.276789 3e-06 0.0
                      CHANNELS 3 Zrotation Yrotation Xrotation
                      JOINT LeftHandMiddle3
                      {
                        OFFSET 4.35652 -1e-06 4e-06
                        CHANNELS 3 Zrotation Yrotation Xrotation
                        JOINT LeftHandMiddle4
                        {
                          OFFSET 2.996877 0.0 8e-06
                          CHANNELS 3 Zrotation Yrotation Xrotation
                          JOINT LeftHandMiddleEnd
                          {
                            OFFSET 2.323256 3e-06 -4e-06
                            CHANNELS 3 Zrotation Yrotation Xrotation
                          }
                        }
                      }
                    }
                  }
                  JOINT LeftHandRing1
                  {
                    OFFSET 2.882606 -0.309162 0.107445
                    CHANNELS 3 Zrotation Yrotation Xrotation
                    JOINT LeftHandRing2
                    {
                      OFFSET 6.033198 0.0 4e-06
                      CHANNELS 3 Zrotation Yrotation Xrotation
                      JOINT LeftHandRing3
                      {
                        OFFSET 4.350578 3e-06 0.0
                        CHANNELS 3 Zrotation Yrotation Xrotation
                        JOINT LeftHandRing4
                        {
                          OFFSET 2.651321 2e-06 -7e-06
                          CHANNELS 3 Zrotation Yrotation Xrotation
                          JOINT LeftHandRingEnd
                          {
                            OFFSET 1.937663 1e-06 -4e-06
                            CHANNELS 3 Zrotation Yrotation Xrotation
                          }
                        }
                      }
                    }
                  }
                  JOINT LeftHandPinky1
                  {
                    OFFSET 2.865315 -1.525436 0.575687
                    CHANNELS 3 Zrotation Yrotation Xrotation
                    JOINT LeftHandPinky2
                    {
                      OFFSET 5.54936 1e-06 -8e-06
                      CHANNELS 3 Zrotation Yrotation Xrotation
                      JOINT LeftHandPinky3
                      {
                        OFFSET 3.070974 0.0 -4e-06
                        CHANNELS 3 Zrotation Yrotation Xrotation
                        JOINT LeftHandPinky4
                        {
                          OFFSET 1.549672 1e-06 0.0
                          CHANNELS 3 Zrotation Yrotation Xrotation
                          JOINT LeftHandPinkyEnd
                          {
                            OFFSET 1.952123 0.0 0.0
                            CHANNELS 3 Zrotation Yrotation Xrotation
                          }
                        }
                      }
                    }
                  }
                }
              }
            }
          }
          JOINT RightShoulder
          {
            OFFSET 23.161716 5.296122 -1.380114
            CHANNELS 3 Zrotation Yrotation Xrotation
            JOINT RightArm
            {
              OFFSET -16.027195 -2e-06 1.1e-05
              CHANNELS 3 Zrotation Yrotation Xrotation
              JOINT RightForeArm
              {
                OFFSET -28.736639 4e-06 2e-06
                CHANNELS 3 Zrotation Yrotation Xrotation
                JOINT RightHand
                {
                  OFFSET -27.133619 6e-06 0.0
                  CHANNELS 3 Zrotation Yrotation Xrotation
                  JOINT RightHandThumb1
                  {
                    OFFSET -2.274328 -3.351035 -0.83067
                    CHANNELS 3 Zrotation Yrotation Xrotation
                    JOINT RightHandThumb2
                    {
                      OFFSET -4.703594 -3e-06 2e-06
                      CHANNELS 3 Zrotation Yrotation Xrotation
                      JOINT RightHandThumb3
                      {
                        OFFSET -2.794935 -4e-06 -3e-06
                        CHANNELS 3 Zrotation Yrotation Xrotation
                        JOINT RightHandThumbEnd
                        {
                          OFFSET -3.183852 4e-06 1e-06
                          CHANNELS 3 Zrotation Yrotation Xrotation
                        }
                      }
                    }
                  }
                  JOINT RightHandIndex1
                  {
                    OFFSET -3.253496 -2.33755 -0.127667
                    CHANNELS 3 Zrotation Yrotation Xrotation
                    JOINT RightHandIndex2
                    {
                      OFFSET -6.344434 0.0 0.0
                      CHANNELS 3 Zrotation Yrotation Xrotation
                      JOINT RightHandIndex3
                      {
                        OFFSET -3.654871 0.0 -8e-06
                        CHANNELS 3 Zrotation Yrotation Xrotation
                        JOINT RightHandIndex4
                        {
                          OFFSET -2.327586 -1e-06 0.0
                          CHANNELS 3 Zrotation Yrotation Xrotation
                          JOINT RightHandIndexEnd
                          {
                            OFFSET -2.770001 3e-06 8e-06
                            CHANNELS 3 Zrotation Yrotation Xrotation
                          }
                        }
                      }
                    }
                  }
                  JOINT RightHandMiddle1
                  {
                    OFFSET -3.168223 -0.944764 0.411762
                    CHANNELS 3 Zrotation Yrotation Xrotation
                    JOINT RightHandMiddle2
                    {
                      OFFSET -6.266691 -1e-06 -4e-06
                      CHANNELS 3 Zrotation Yrotation Xrotation
                      JOINT RightHandMiddle3
                      {
                        OFFSET -4.348901 0.0 0.0
                        CHANNELS 3 Zrotation Yrotation Xrotation
                        JOINT RightHandMiddle4
                        {
                          OFFSET -3.00024 2e-06 -4e-06
                          CHANNELS 3 Zrotation Yrotation Xrotation
                          JOINT RightHandMiddleEnd
                          {
                            OFFSET -2.321477 -4e-06 -4e-06
                            CHANNELS 3 Zrotation Yrotation Xrotation
                          }
                        }
                      }
                    }
                  }
                  JOINT RightHandRing1
                  {
                    OFFSET -2.885654 0.293261 -0.119232
                    CHANNELS 3 Zrotation Yrotation Xrotation
                    JOINT RightHandRing2
                    {
                      OFFSET -6.032835 -1e-06 -4e-06
                      CHANNELS 3 Zrotation Yrotation Xrotation
                      JOINT RightHandRing3
                      {
                        OFFSET -4.33881 0.0 -4e-06
                        CHANNELS 3 Zrotation Yrotation Xrotation
                        JOINT RightHandRing4
                        {
                          OFFSET -2.654903 -4e-06 -4e-06
                          CHANNELS 3 Zrotation Yrotation Xrotation
                          JOINT RightHandRingEnd
                          {
                            OFFSET -1.935122 0.0 4e-06
                            CHANNELS 3 Zrotation Yrotation Xrotation
                          }
                        }
                      }
                    }
                  }
                  JOINT RightHandPinky1
                  {
                    OFFSET -2.866241 1.503904 -0.60527
                    CHANNELS 3 Zrotation Yrotation Xrotation
                    JOINT RightHandPinky2
                    {
                      OFFSET -5.553177 -2e-06 0.0
                      CHANNELS 3 Zrotation Yrotation Xrotation
                      JOINT RightHandPinky3
                      {
                        OFFSET -3.062664 -1e-06 -4e-06
                        CHANNELS 3 Zrotation Yrotation Xrotation
                        JOINT RightHandPinky4
                        {
                          OFFSET -1.546529 2e-06 4e-06
                          CHANNELS 3 Zrotation Yrotation Xrotation
                          JOINT RightHandPinkyEnd
                          {
                            OFFSET -1.952341 0.0 -4e-06
                            CHANNELS 3 Zrotation Yrotation Xrotation
                          }
                        }
                      }
                    }
                  }
                }
              }
            }
          }
        }
      }
    }
    JOINT LeftLeg
    {
      OFFSET -8.443107 2.567604 10.043214
      CHANNELS 3 Zrotation Yrotation Xrotation
      JOINT LeftShin
      {
        OFFSET 43.229198 1e-06 -1e-06
        CHANNELS 3 Zrotation Yrotation Xrotation
        JOINT LeftFoot
        {
          OFFSET 42.298611 1e-06 1e-06
          CHANNELS 3 Zrotation Yrotation Xrotation
          JOINT LeftToeBase
          {
            OFFSET 14.165858 1e-06 0.0
            CHANNELS 3 Zrotation Yrotation Xrotation
            JOINT LeftToeEnd
            {
              OFFSET 6.7141 -0.234461 0.0
              CHANNELS 3 Zrotation Yrotation Xrotation
            }
          }
        }
      }
    }
    JOINT RightLeg
    {
      OFFSET -8.303923 2.592729 -10.047278
      CHANNELS 3 Zrotation Yrotation Xrotation
      JOINT RightShin
      {
        OFFSET -43.369682 0.0 1e-06
        CHANNELS 3 Zrotation Yrotation Xrotation
        JOINT RightFoot
        {
          OFFSET -42.260784 4e-06 2e-06
          CHANNELS 3 Zrotation Yrotation Xrotation
          JOINT RightToeBase
          {
            OFFSET -14.222245 -2e-06 -1e-06
            CHANNELS 3 Zrotation Yrotation Xrotation
            JOINT RightToeEnd
            {
              OFFSET -6.660062 0.232574 -2e-06
              CHANNELS 3 Zrotation Yrotation Xrotation
            }
          }
        }
      }
    }
  }
}
MOTION
Frames: 4
Frame Time: 0.03333333333333333
0.0 0.0 0.0 0.0 -0.0 0.0 -1.941089 98.135483 3.972059 87.302406 0.754312 90.021812 -0.045529 2.862522 -0.144536 -11.684475 -0.073594 -1.029082 23.313875 3.780758 -1.388094 42.215073 9.893648 2.854244 -2.675102 -0.713742 0.8702 -23.780375 1.276578 -1.047165 7e-06 -1e-06 0.0 -0.102593 0.007 -0.038362 0.010191 -0.002941 -0.044883 0.043963 0.027173 -0.02499 -112.654083 -81.524788 135.946426 55.858932 -44.904709 16.123957 28.802536 -0.380414 -0.24286 -2.487982 2.163599 -1.49472 17.636625 -26.322737 52.411201 -19.466663 -14.395598 29.410395 -1e-06 -8.774822 -3e-06 16.213644 -18.032354 6.159642 -0.609776 -1.795655 -3.889328 -4.807089 -11.046813 -2.937851 3e-06 -20.976021 2e-06 -5.019971 -25.033562 -4.031884 6e-06 -0.0 1e-06 -10.634534 -5.686972 -3.565589 10.573275 -17.922955 -3.113901 4e-06 -13.821209 1e-06 -0.501779 -31.181511 -4.027015 -11.563174 -60.324757 7.35984 -13.982714 -7.1502 -2.875042 13.772728 -8.401493 -3.21824 0.347733 -34.211559 0.771652 -0.963029 -17.733374 2.62102 -1e-06 -0.0 -0.0 -17.34642 -20.095222 -4.201782 21.757561 -1.638374 3.866429 1e-06 -6.338824 1e-06 -1.697589 -22.591749 -6.194008 -1e-06 -5e-06 -4e-06 25.391256 -76.996979 178.789429 54.746094 -38.968571 7.922641 32.462971 -0.328826 -0.023019 -1.163271 1.812195 1.679062 22.182117 -20.375883 49.9333 -16.701817 -16.74353 28.47653 -2e-06 -12.690603 -2e-06 16.166119 -17.803728 2.387126 -0.105918 -1.513856 -4.275882 -5.039042 -5.612873 -2.953556 6e-06 -11.020525 -4e-06 -6.1113 -15.895332 -3.840472 1e-06 -1e-06 1e-06 -10.283371 -5.68029 -4.34184 11.028296 -11.302407 -2.372632 -1.384269 -14.238582 -6.320121 -0.625438 -26.924191 -3.827604 -4.3114 -49.525787 -3.854533 -13.708527 -7.363477 -3.720939 18.141151 -14.05274 -3.242673 6e-06 -18.78727 -3e-06 -0.429711 -8.456043 2.555502 3e-06 0.0 -0.0 -15.923536 -20.094482 -5.473585 30.419218 -7.190826 1.735925 2e-06 -8.162925 -3e-06 -1.861899 -22.861469 -6.167942 -2e-06 -3e-06 -3e-06 -177.415344 -7.956624 -3.857637 42.176048 -0.08629 0.325623 -77.993515 15.25911 -3.659739 -26.742817 2.078429 1.977208 -1.000001 -0.0 0.0 -18.008686 4.131889 -8.154975 23.62895 0.148763 -0.361279 -73.691689 -6.06321 -1.763843 -7.885367 0.779977 1.581644 -1.000003 -0.0 -0.0 
0.0 0.0 0.0 0.0 -0.0 0.0 -2.491229 98.099335 5.661158 87.022621 1.191073 90.612854 0.127464 3.11484 -0.200501 -11.619425 0.023139 -1.056835 23.271673 3.958718 -1.46905 41.957527 10.265536 2.786284 -2.695562 -0.645174 0.655931 -24.095188 1.266306 -1.169043 7e-06 -1e-06 0.0 -0.108145 0.000541 -0.024358 -0.000526 -0.001439 -0.033585 0.027909 0.014567 -0.010385 -110.812805 -81.841057 133.963531 56.105392 -44.804504 15.239356 29.363476 -0.265381 -0.29094 -2.079185 2.182153 -1.353927 17.636644 -26.322741 52.411198 -19.466669 -14.3956 29.410395 -1e-06 -8.774825 -3e-06 16.095612 -17.949974 6.128347 -0.609776 -1.795654 -3.889328 -4.80709 -11.046814 -2.937849 5e-06 -20.976025 3e-06 -5.019969 -25.033567 -4.031882 6e-06 0.0 1e-06 -10.634538 -5.686971 -3.565587 10.573279 -17.922956 -3.113901 3e-06 -13.821213 0.0 -0.501777 -31.181511 -4.027015 -11.266232 -60.144112 7.107603 -13.982719 -7.150199 -2.875042 13.772735 -8.401497 -3.218242 0.347737 -34.211563 0.771654 -0.963028 -17.733376 2.621022 -1e-06 -0.0 -0.0 -17.346426 -20.095222 -4.20178 21.757566 -1.638377 3.866431 2e-06 -6.338826 1e-06 -1.697589 -22.591753 -6.194007 0.0 -4e-06 -3e-06 25.030626 -76.877388 179.281982 54.203335 -38.599365 7.45082 31.844255 -0.404616 0.01204 -0.945172 1.525753 1.447927 22.182119 -20.375891 49.933319 -16.701818 -16.743528 28.476532 -3e-06 -12.690601 -1e-06 16.092073 -17.841805 2.459449 -0.10592 -1.513856 -4.275885 -5.039042 -5.612872 -2.953555 5e-06 -11.020525 -3e-06 -6.111298 -15.895334 -3.840472 0.0 -0.0 0.0 -10.283371 -5.680288 -4.341839 11.028294 -11.302407 -2.37263 -1.384269 -14.238583 -6.320124 -0.62544 -26.924191 -3.827604 -4.376893 -49.559166 -3.771955 -13.708526 -7.363479 -3.72094 18.14115 -14.052741 -3.242678 5e-06 -18.78727 -4e-06 -0.429712 -8.456043 2.555502 -0.0 -1e-06 -0.0 -15.923536 -20.094486 -5.473588 30.419218 -7.190827 1.735928 1e-06 -8.162927 -1e-06 -1.861899 -22.861471 -6.167943 -1e-06 -3e-06 -1e-06 -178.184692 -8.942496 -3.750202 45.551964 -0.127424 0.392378 -75.359734 16.007263 -4.272763 -27.04232 2.035663 1.984848 -0.999999 -0.0 0.0 -16.790873 4.653228 -8.429404 24.474155 0.16193 -0.381845 -75.476112 -6.569526 -1.737831 -7.397958 0.778731 1.600764 -1.000002 -0.0 0.0 
0.0 0.0 0.0 0.0 -0.0 0.0 -2.979222 98.017548 7.214518 86.942039 1.661425 91.176796 0.302718 3.236561 -0.213301 -11.525012 0.060448 -1.097472 23.272573 4.071437 -1.521116 41.718315 10.479167 2.670362 -2.712661 -0.604392 0.409261 -24.306046 1.196327 -1.367176 8e-06 1e-06 0.0 -0.101651 -0.007099 -0.006796 -0.014824 0.001592 -0.015289 0.011166 -0.003394 0.004086 -110.026558 -82.066696 133.049789 56.584587 -44.518734 14.501706 29.942087 -0.022317 -0.275408 -1.762451 2.340908 -1.315613 17.636627 -26.322733 52.411194 -19.46666 -14.395596 29.410393 -0.0 -8.774821 -3e-06 16.028046 -17.931829 6.145234 -0.609776 -1.795654 -3.889328 -4.807088 -11.046809 -2.937852 4e-06 -20.976015 1e-06 -5.019971 -25.033556 -4.031879 6e-06 0.0 1e-06 -10.634533 -5.68697 -3.565587 10.573275 -17.922949 -3.113899 3e-06 -13.821205 1e-06 -0.501779 -31.181501 -4.027014 -11.26789 -60.028362 7.08504 -13.982712 -7.150196 -2.875041 13.772725 -8.401489 -3.21824 0.347732 -34.211544 0.771655 -0.963029 -17.733368 2.621018 1e-06 1e-06 0.0 -17.346413 -20.095213 -4.201782 21.757555 -1.638374 3.866426 1e-06 -6.338823 2e-06 -1.697589 -22.591736 -6.194005 -2e-06 -6e-06 -3e-06 24.568552 -76.679718 179.814651 53.57793 -38.142647 7.14578 31.278429 -0.513419 0.023835 -0.873452 1.460171 1.237241 22.182108 -20.375891 49.933319 -16.701811 -16.743528 28.476532 -4e-06 -12.690601 -1e-06 16.075277 -17.844717 2.482926 -0.10592 -1.513853 -4.27588 -5.039042 -5.612873 -2.953557 5e-06 -11.020523 -1e-06 -6.111298 -15.89533 -3.840472 1e-06 -0.0 1e-06 -10.283368 -5.680286 -4.341839 11.028293 -11.302402 -2.372633 -1.384268 -14.238577 -6.320123 -0.625437 -26.924183 -3.8276 -4.458434 -49.509472 -3.7312 -13.708525 -7.363474 -3.720938 18.14115 -14.052737 -3.242675 5e-06 -18.787268 -1e-06 -0.429712 -8.456041 2.555503 0.0 0.0 -0.0 -15.923532 -20.094479 -5.473586 30.419207 -7.190824 1.735926 0.0 -8.162922 -0.0 -1.861899 -22.861465 -6.167941 -1e-06 -5e-06 -2e-06 -179.289368 -9.714765 -3.775323 49.314255 -0.197343 0.446448 -73.019661 16.447336 -5.138769 -25.776199 1.93584 1.989801 -0.999999 0.0 0.0 -15.684305 4.886253 -8.917288 25.446308 0.179629 -0.378385 -77.248444 -6.80777 -1.593649 -6.931888 0.759674 1.61217 -1.000001 -0.0 -0.0 
0.0 0.0 0.0 0.0 -0.0 0.0 -3.459756 97.899887 8.697758 86.958199 2.136999 91.733894 0.498566 3.304229 -0.174366 -11.42161 0.068564 -1.126465 23.313515 4.115619 -1.546307 41.456646 10.566684 2.564227 -2.704461 -0.603463 0.203576 -24.546459 1.143741 -1.637263 5e-06 -1e-06 0.0 -0.090821 -0.020193 0.015989 -0.022233 -0.00354 0.007249 -0.000179 -0.024947 0.026003 -110.278053 -82.177574 133.116852 57.375248 -44.097336 13.655037 30.418299 0.130422 -0.301264 -1.49914 3.082393 -1.115687 17.636621 -26.322733 52.411194 -19.46666 -14.395596 29.410393 0.0 -8.774821 -2e-06 15.938182 -17.930635 6.195615 -0.609776 -1.795652 -3.889327 -4.807089 -11.04681 -2.93785 3e-06 -20.976015 3e-06 -5.019971 -25.033556 -4.031883 7e-06 0.0 -0.0 -10.634533 -5.686972 -3.565585 10.573272 -17.922947 -3.113901 2e-06 -13.821205 1e-06 -0.50178 -31.181501 -4.027016 -11.350034 -59.954254 7.145208 -13.982712 -7.150196 -2.875041 13.772727 -8.401489 -3.218241 0.347732 -34.211544 0.771655 -0.963029 -17.733366 2.621018 0.0 0.0 0.0 -17.346416 -20.095217 -4.201782 21.757555 -1.638373 3.866427 1e-06 -6.338824 1e-06 -1.697589 -22.591747 -6.194007 1e-06 -6e-06 -4e-06 24.067316 -76.505791 -179.575378 53.070393 -37.585861 7.049525 30.62982 -0.601729 0.017784 -0.86936 1.671356 1.088631 22.182112 -20.375891 49.933319 -16.701813 -16.743526 28.47653 -3e-06 -12.690601 -2e-06 16.038866 -17.805054 2.503702 -0.10592 -1.513856 -4.275882 -5.039041 -5.612871 -2.953559 5e-06 -11.020525 -4e-06 -6.111297 -15.895334 -3.840468 -0.0 0.0 -1e-06 -10.28337 -5.680287 -4.341835 11.028294 -11.302405 -2.372635 -1.384268 -14.238581 -6.320123 -0.625437 -26.924187 -3.827602 -4.546433 -49.454041 -3.651365 -13.708524 -7.363476 -3.720937 18.141148 -14.052738 -3.242678 5e-06 -18.787266 -2e-06 -0.429711 -8.456041 2.555503 1e-06 -2e-06 -0.0 -15.923534 -20.094482 -5.473585 30.41921 -7.190823 1.735926 2e-06 -8.162927 -2e-06 -1.861902 -22.861469 -6.167946 -1e-06 -6e-06 -1e-06 179.215546 -10.388978 -3.924415 53.508698 -0.29094 0.478155 -71.607079 16.670942 -6.486666 -22.546438 1.819649 1.993427 -0.999998 -0.0 -0.0 -14.652286 5.037262 -9.418764 26.483341 0.170182 -0.366512 -78.974876 -6.992182 -1.42793 -6.602197 0.739777 1.616872 -1.000001 -0.0 -0.0 
